<svg width="2298" height="1700" viewBox="0 0 2298 1700" fill="none" xmlns="http://www.w3.org/2000/svg">
<path d="M2227.93 1598.15H2229.3L2236.79 1609.02H2236.82V1598.15H2238.05V1611H2236.68L2229.19 1600.13H2229.15V1611H2227.93V1598.15ZM2242.62 1598.15H2251.5V1599.19H2243.85V1603.84H2251.01V1604.88H2243.85V1609.96H2251.59V1611H2242.62V1598.15ZM2254 1598.15H2255.31L2258.23 1609.4H2258.26L2261.39 1598.15H2262.92L2266.07 1609.4H2266.11L2269.04 1598.15H2270.27L2266.72 1611H2265.43L2262.17 1599.5H2262.13L2258.89 1611H2257.56L2254 1598.15ZM2280.72 1598.15H2281.95V1611H2280.72V1598.15ZM2286.6 1598.15H2287.97L2295.46 1609.02H2295.5V1598.15H2296.72V1611H2295.35L2287.86 1600.13H2287.83V1611H2286.6V1598.15ZM2195.63 1628.15H2204.88V1629.23L2196.42 1639.96H2205.06V1641H2195.06V1639.92L2203.52 1629.19H2195.63V1628.15ZM2212.36 1628.15H2213.73L2218.77 1641H2217.45L2215.89 1637H2210.04L2208.49 1641H2207.18L2212.36 1628.15ZM2212.99 1629.37L2210.42 1635.96H2215.47L2212.99 1629.37ZM2221.94 1628.15H2227.79C2230.09 1628.15 2231.73 1629.28 2231.73 1631.5C2231.73 1633.21 2230.81 1634.45 2229.23 1634.77V1634.81C2231.24 1635.08 2231.44 1636.68 2231.49 1638.03C2231.53 1638.91 2231.58 1640.44 2232.07 1641H2230.72C2230.45 1640.59 2230.41 1639.51 2230.36 1638.64C2230.29 1637.38 2230.09 1636.57 2229.66 1636.01C2229.26 1635.51 2228.67 1635.29 2227.98 1635.29H2223.16V1641H2221.94V1628.15ZM2223.16 1634.25H2227.75C2229.19 1634.25 2230.5 1633.33 2230.5 1631.75C2230.5 1630.09 2229.5 1629.19 2227.75 1629.19H2223.16V1634.25ZM2239.7 1628.15H2241.07L2246.11 1641H2244.8L2243.23 1637H2237.38L2235.83 1641H2234.52L2239.7 1628.15ZM2240.33 1629.37L2237.76 1635.96H2242.82L2240.33 1629.37ZM2256.25 1628.15H2258.05L2262.5 1639.42L2266.93 1628.15H2268.73V1641H2267.5V1629.89H2267.47L2263.08 1641H2261.92L2257.51 1629.89H2257.48V1641H2256.25V1628.15ZM2277.05 1628.15H2278.41L2283.45 1641H2282.14L2280.57 1637H2274.72L2273.18 1641H2271.86L2277.05 1628.15ZM2277.68 1629.37L2275.1 1635.96H2280.16L2277.68 1629.37ZM2286.6 1628.15H2287.97L2295.46 1639.02H2295.5V1628.15H2296.72V1641H2295.35L2287.86 1630.13H2287.83V1641H2286.6V1628.15ZM2223.78 1657.88C2226.5 1657.88 2228.55 1659.34 2228.55 1661.87H2227.32C2227.23 1659.97 2225.7 1658.92 2223.8 1658.92C2222.05 1658.92 2220.59 1659.64 2220.59 1661.48C2220.59 1662.81 2221.67 1663.22 2222.39 1663.4L2225.52 1664.18C2228.01 1664.79 2229 1665.89 2229 1667.6C2229 1668.86 2228.31 1671.27 2224.08 1671.27C2220.92 1671.27 2218.95 1669.81 2218.95 1667.09V1666.77H2220.18V1666.88C2220.18 1669.24 2221.78 1670.23 2224.34 1670.23C2225.79 1670.23 2227.77 1669.45 2227.77 1667.62C2227.77 1666.45 2226.87 1665.73 2225.2 1665.31L2222.27 1664.59C2220.36 1664.12 2219.37 1663.22 2219.37 1661.5C2219.37 1660.04 2220.38 1657.88 2223.78 1657.88ZM2237.12 1657.88C2239.83 1657.88 2241.89 1659.34 2241.89 1661.87H2240.66C2240.57 1659.97 2239.04 1658.92 2237.13 1658.92C2235.39 1658.92 2233.93 1659.64 2233.93 1661.48C2233.93 1662.81 2235.01 1663.22 2235.73 1663.4L2238.86 1664.18C2241.35 1664.79 2242.34 1665.89 2242.34 1667.6C2242.34 1668.86 2241.65 1671.27 2237.42 1671.27C2234.25 1671.27 2232.29 1669.81 2232.29 1667.09V1666.77H2233.52V1666.88C2233.52 1669.24 2235.12 1670.23 2237.67 1670.23C2239.13 1670.23 2241.11 1669.45 2241.11 1667.62C2241.11 1666.45 2240.21 1665.73 2238.54 1665.31L2235.6 1664.59C2233.7 1664.12 2232.71 1663.22 2232.71 1661.5C2232.71 1660.04 2233.71 1657.88 2237.12 1657.88ZM2256.98 1658.29C2259.17 1658.29 2260.88 1659.5 2260.88 1661.84C2260.88 1662.74 2260.61 1663.53 2260.07 1664.27C2259.53 1665.02 2258.67 1665.76 2256.92 1666.82C2254.93 1668.05 2254.13 1668.95 2253.94 1669.96H2260.94V1671H2252.64C2252.71 1668.79 2253.9 1667.56 2256.29 1666.01C2257.68 1665.11 2258.42 1664.54 2258.98 1663.91C2259.48 1663.33 2259.75 1662.7 2259.75 1661.82C2259.75 1660.24 2258.51 1659.25 2256.92 1659.25C2255 1659.25 2254.08 1660.69 2254.08 1662.58V1662.76H2252.95V1662.58C2252.95 1660.02 2254.37 1658.29 2256.98 1658.29ZM2269 1658.29C2271.91 1658.29 2273.39 1660.54 2273.39 1664.77C2273.39 1669.07 2271.88 1671.27 2269 1671.27C2266.14 1671.27 2264.61 1669.09 2264.61 1664.79C2264.61 1660.45 2266.14 1658.29 2269 1658.29ZM2265.74 1664.77C2265.74 1668.43 2266.84 1670.32 2269 1670.32C2271.16 1670.32 2272.26 1668.44 2272.26 1664.77C2272.26 1661.12 2271.16 1659.25 2268.98 1659.25C2266.87 1659.25 2265.74 1661.1 2265.74 1664.77ZM2280.98 1658.29C2283.18 1658.29 2284.89 1659.5 2284.89 1661.84C2284.89 1662.74 2284.62 1663.53 2284.08 1664.27C2283.54 1665.02 2282.67 1665.76 2280.93 1666.82C2278.93 1668.05 2278.14 1668.95 2277.94 1669.96H2284.94V1671H2276.64C2276.72 1668.79 2277.9 1667.56 2280.3 1666.01C2281.68 1665.11 2282.42 1664.54 2282.98 1663.91C2283.48 1663.33 2283.75 1662.7 2283.75 1661.82C2283.75 1660.24 2282.51 1659.25 2280.93 1659.25C2279 1659.25 2278.08 1660.69 2278.08 1662.58V1662.76H2276.95V1662.58C2276.95 1660.02 2278.37 1658.29 2280.98 1658.29ZM2290.25 1658.56H2296.55V1659.61H2291.04L2290.23 1663.78L2290.27 1663.82C2290.91 1663.08 2291.92 1662.65 2292.93 1662.65C2295.49 1662.65 2297.16 1664.43 2297.16 1667C2297.16 1669.38 2295.27 1671.27 2292.79 1671.27C2290.5 1671.27 2288.7 1669.85 2288.65 1667.4H2289.78C2289.83 1669.15 2291.15 1670.32 2292.88 1670.32C2294.82 1670.32 2296.03 1668.71 2296.03 1666.88C2296.03 1665.01 2294.66 1663.6 2292.8 1663.6C2291.72 1663.6 2290.66 1664.09 2290 1665.1H2289.02L2290.25 1658.56Z" fill="black"/>
</svg>
